<svg width="71" height="73" viewBox="0 0 71 73" fill="none" xmlns="http://www.w3.org/2000/svg">
<path d="M39.8118 60.3335C47.7647 60.3335 54.2118 53.7575 54.2118 45.6455C54.2118 37.5336 47.7647 30.9575 39.8118 30.9575C31.8589 30.9575 25.4118 37.5336 25.4118 45.6455C25.4118 53.7575 31.8589 60.3335 39.8118 60.3335Z" fill="#84BD00"/>
<path d="M12.4362 13.3349C12.3978 13.3182 12.3553 13.3136 12.3142 13.3219C12.2732 13.3301 12.2356 13.3507 12.2061 13.3809L9.45036 16.1918C9.41295 16.2328 9.39259 16.2869 9.39356 16.3429C9.39453 16.3988 9.41675 16.4522 9.45555 16.4918C9.49435 16.5314 9.54669 16.5541 9.60155 16.555C9.65641 16.556 9.70951 16.5353 9.74965 16.4971L12.1497 14.0491V23.5531C12.1497 23.6104 12.172 23.6653 12.2117 23.7058C12.2514 23.7463 12.3053 23.7691 12.3614 23.7691C12.4176 23.7691 12.4714 23.7463 12.5112 23.7058C12.5509 23.6653 12.5732 23.6104 12.5732 23.5531V13.5336C12.5725 13.4903 12.5591 13.4482 12.5347 13.4127C12.5103 13.3773 12.476 13.3502 12.4362 13.3349V13.3349Z" fill="black"/>
<path d="M19.9059 12.8569C19.0822 12.8569 18.2922 13.1907 17.7097 13.7848C17.1272 14.3789 16.8 15.1847 16.8 16.0249V20.6329C16.7912 21.0536 16.8648 21.4718 17.0166 21.8631C17.1683 22.2543 17.3951 22.6108 17.6837 22.9114C17.9722 23.2121 18.3168 23.451 18.697 23.6141C19.0773 23.7772 19.4856 23.8612 19.8981 23.8612C20.3107 23.8612 20.719 23.7772 21.0993 23.6141C21.4795 23.451 21.824 23.2121 22.1126 22.9114C22.4012 22.6108 22.628 22.2543 22.7797 21.8631C22.9314 21.4718 23.0051 21.0536 22.9963 20.6329V16.0249C22.9963 15.1875 22.6712 14.3841 22.0921 13.7904C21.513 13.1967 20.7269 12.8611 19.9059 12.8569V12.8569ZM22.5883 20.6214C22.5964 20.9849 22.5333 21.3465 22.4026 21.6848C22.2719 22.0231 22.0762 22.3313 21.827 22.5914C21.5778 22.8514 21.2802 23.0581 20.9516 23.1991C20.6231 23.3402 20.2702 23.4129 19.9137 23.4129C19.5572 23.4129 19.2043 23.3402 18.8757 23.1991C18.5471 23.0581 18.2495 22.8514 18.0003 22.5914C17.7512 22.3313 17.5555 22.0231 17.4247 21.6848C17.294 21.3465 17.2309 20.9849 17.2391 20.6214V16.0134C17.2309 15.6499 17.294 15.2883 17.4247 14.9501C17.5555 14.6118 17.7512 14.3035 18.0003 14.0435C18.2495 13.7834 18.5471 13.5768 18.8757 13.4357C19.2043 13.2946 19.5572 13.2219 19.9137 13.2219C20.2702 13.2219 20.6231 13.2946 20.9516 13.4357C21.2802 13.5768 21.5778 13.7834 21.827 14.0435C22.0762 14.3035 22.2719 14.6118 22.4026 14.9501C22.5333 15.2883 22.5964 15.6499 22.5883 16.0134V20.6214Z" fill="black"/>
<path d="M30.0847 13.335C30.046 13.3182 30.0033 13.3136 29.962 13.3218C29.9207 13.3301 29.8828 13.3507 29.8532 13.3811L27.1059 16.192C27.0685 16.2329 27.0481 16.2871 27.0491 16.343C27.05 16.399 27.0723 16.4524 27.1111 16.492C27.1499 16.5315 27.2022 16.5542 27.2571 16.5552C27.3119 16.5562 27.365 16.5354 27.4052 16.4973L29.8052 14.0493V23.5533C29.8052 23.6105 29.8275 23.6655 29.8672 23.706C29.9069 23.7465 29.9608 23.7693 30.0169 23.7693C30.0731 23.7693 30.127 23.7465 30.1667 23.706C30.2064 23.6655 30.2287 23.6105 30.2287 23.5533V13.5337C30.2277 13.4895 30.2133 13.4467 30.1876 13.4111C30.1618 13.3755 30.1259 13.349 30.0847 13.335V13.335Z" fill="black"/>
<path d="M44.8758 16.4972L47.2687 14.0492V23.5532C47.2687 23.6105 47.291 23.6654 47.3307 23.7059C47.3704 23.7464 47.4243 23.7692 47.4805 23.7692C47.5366 23.7692 47.5905 23.7464 47.6302 23.7059C47.6699 23.6654 47.6922 23.6105 47.6922 23.5532V13.5337C47.6922 13.491 47.6798 13.4493 47.6565 13.4138C47.6332 13.3783 47.6002 13.3506 47.5615 13.3343C47.5228 13.318 47.4803 13.3137 47.4392 13.322C47.3982 13.3303 47.3604 13.3509 47.3308 13.381L44.5751 16.1919C44.5354 16.2326 44.5131 16.2877 44.5133 16.3451C44.5134 16.4025 44.5359 16.4574 44.5758 16.4979C44.6156 16.5384 44.6696 16.5611 44.7259 16.5609C44.7822 16.5608 44.8361 16.5379 44.8758 16.4972Z" fill="black"/>
<path d="M37.5529 23.7822C38.3755 23.7822 39.1644 23.4494 39.7466 22.8569C40.3289 22.2643 40.657 21.4604 40.6588 20.6214V16.0134C40.6676 15.5928 40.594 15.1745 40.4423 14.7833C40.2905 14.392 40.0637 14.0356 39.7752 13.7349C39.4866 13.4342 39.1421 13.1953 38.7618 13.0323C38.3816 12.8692 37.9732 12.7852 37.5607 12.7852C37.1482 12.7852 36.7398 12.8692 36.3596 13.0323C35.9793 13.1953 35.6348 13.4342 35.3462 13.7349C35.0577 14.0356 34.8309 14.392 34.6792 14.7833C34.5274 15.1745 34.4538 15.5928 34.4626 16.0134V20.6214C34.4644 21.4576 34.7904 22.2592 35.3693 22.8513C35.9482 23.4434 36.7331 23.778 37.5529 23.7822ZM34.8706 16.0177C34.8624 15.6542 34.9255 15.2927 35.0563 14.9544C35.187 14.6161 35.3827 14.3079 35.6319 14.0478C35.881 13.7877 36.1786 13.5811 36.5072 13.44C36.8358 13.2989 37.1887 13.2263 37.5452 13.2263C37.9017 13.2263 38.2546 13.2989 38.5831 13.44C38.9117 13.5811 39.2093 13.7877 39.4585 14.0478C39.7077 14.3079 39.9034 14.6161 40.0341 14.9544C40.1648 15.2927 40.228 15.6542 40.2198 16.0177V20.6257C40.228 20.9893 40.1648 21.3508 40.0341 21.6891C39.9034 22.0274 39.7077 22.3356 39.4585 22.5957C39.2093 22.8557 38.9117 23.0624 38.5831 23.2035C38.2546 23.3445 37.9017 23.4172 37.5452 23.4172C37.1887 23.4172 36.8358 23.3445 36.5072 23.2035C36.1786 23.0624 35.881 22.8557 35.6319 22.5957C35.3827 22.3356 35.187 22.0274 35.0563 21.6891C34.9255 21.3508 34.8624 20.9893 34.8706 20.6257V16.0177Z" fill="black"/>
<path d="M12.4362 30.9362C12.3977 30.9197 12.3553 30.9152 12.3143 30.9235C12.2733 30.9317 12.2357 30.9521 12.2061 30.9822L9.45036 33.7931C9.41295 33.8341 9.39259 33.8882 9.39356 33.9442C9.39453 34.0001 9.41675 34.0535 9.45555 34.0931C9.49435 34.1327 9.54669 34.1553 9.60155 34.1563C9.65641 34.1573 9.70951 34.1366 9.74965 34.0984L12.1497 31.6576V41.1616C12.1497 41.2189 12.172 41.2738 12.2117 41.3143C12.2514 41.3548 12.3053 41.3776 12.3614 41.3776C12.4176 41.3776 12.4714 41.3548 12.5112 41.3143C12.5509 41.2738 12.5732 41.2189 12.5732 41.1616V31.1349C12.5725 31.0916 12.5591 31.0495 12.5347 31.014C12.5103 30.9786 12.476 30.9515 12.4362 30.9362V30.9362Z" fill="black"/>
<path d="M19.9059 30.4595C19.0836 30.4595 18.2949 30.7921 17.7127 31.3843C17.1305 31.9765 16.8023 32.7801 16.8 33.6188V38.2268C16.8173 39.0533 17.1513 39.8399 17.7304 40.4181C18.3096 40.9964 19.0877 41.3202 19.8981 41.3202C20.7085 41.3202 21.4867 40.9964 22.0658 40.4181C22.645 39.8399 22.979 39.0533 22.9963 38.2268V33.6188C22.994 32.7829 22.6679 31.9817 22.0891 31.3899C21.5102 30.7981 20.7255 30.4636 19.9059 30.4595ZM22.5883 38.224C22.5722 38.9366 22.2834 39.6146 21.7835 40.1129C21.2837 40.6111 20.6126 40.8901 19.9137 40.8901C19.2148 40.8901 18.5436 40.6111 18.0438 40.1129C17.544 39.6146 17.2551 38.9366 17.2391 38.224V33.616C17.2551 32.9033 17.544 32.2253 18.0438 31.727C18.5436 31.2288 19.2148 30.9498 19.9137 30.9498C20.6126 30.9498 21.2837 31.2288 21.7835 31.727C22.2834 32.2253 22.5722 32.9033 22.5883 33.616V38.224Z" fill="black"/>
<path d="M56.6612 35.5226C56.6205 35.4849 56.5671 35.4647 56.5121 35.4664C56.4572 35.4681 56.405 35.4915 56.3667 35.5318C56.3284 35.572 56.3069 35.6258 56.3068 35.6819C56.3067 35.738 56.328 35.7919 56.3661 35.8322C57.9463 37.3925 59.2015 39.262 60.0563 41.3289C60.9112 43.3957 61.3482 45.6173 61.3412 47.8606C61.3412 47.9179 61.3635 47.9728 61.4032 48.0133C61.4429 48.0538 61.4968 48.0766 61.5529 48.0766C61.6091 48.0766 61.663 48.0538 61.7027 48.0133C61.7424 47.9728 61.7647 47.9179 61.7647 47.8606C61.7721 45.5595 61.3239 43.2806 60.4469 41.1606C59.57 39.0405 58.2823 37.1228 56.6612 35.5226V35.5226Z" fill="black"/>
<path d="M44.88 31.0703C47.4195 31.0629 49.9255 31.6606 52.1986 32.8155C52.2237 32.8307 52.2515 32.8404 52.2804 32.844C52.3093 32.8477 52.3386 32.8452 52.3666 32.8368C52.3945 32.8283 52.4204 32.8141 52.4427 32.795C52.465 32.7759 52.4832 32.7523 52.4961 32.7257C52.5091 32.6991 52.5165 32.67 52.5179 32.6403C52.5194 32.6107 52.5148 32.581 52.5045 32.5532C52.4942 32.5255 52.4784 32.5001 52.4581 32.4789C52.4377 32.4576 52.4133 32.4408 52.3864 32.4296C50.0554 31.2436 47.4849 30.6301 44.88 30.6383C42.2142 30.6432 39.5871 31.2893 37.2121 32.5244C34.8371 33.7594 32.7811 35.5484 31.2113 37.7461C31.1949 37.7689 31.1831 37.7949 31.1765 37.8224C31.1699 37.8499 31.1688 37.8785 31.1731 37.9065C31.1775 37.9345 31.1872 37.9613 31.2017 37.9854C31.2163 38.0095 31.2354 38.0305 31.2579 38.0471C31.2938 38.0743 31.3374 38.0889 31.3821 38.0888C31.4157 38.0888 31.4488 38.0807 31.4787 38.0652C31.5087 38.0497 31.5346 38.0272 31.5544 37.9995C33.0844 35.8566 35.0887 34.1123 37.4042 32.9082C39.7197 31.7042 42.281 31.0745 44.88 31.0703V31.0703Z" fill="black"/>
<path d="M29.712 41.5761C29.6622 41.5509 29.6046 41.5468 29.5517 41.5646C29.4989 41.5824 29.4551 41.6207 29.4297 41.6712C28.3836 43.784 27.7747 46.0937 27.6409 48.4568C27.5071 50.8198 27.8512 53.1857 28.6518 55.4073C28.6659 55.4493 28.6925 55.4858 28.728 55.5116C28.7634 55.5374 28.8059 55.5513 28.8494 55.5513C28.8745 55.5513 28.8993 55.547 28.9228 55.5384C28.949 55.5286 28.973 55.5136 28.9935 55.4943C29.014 55.475 29.0306 55.4518 29.0422 55.426C29.0539 55.4002 29.0605 55.3723 29.0616 55.3439C29.0626 55.3154 29.0582 55.2871 29.0485 55.2604C28.2683 53.0944 27.933 50.7879 28.0634 48.4841C28.1938 46.1803 28.7872 43.9285 29.8066 41.8684C29.8194 41.8429 29.8272 41.8151 29.8293 41.7866C29.8315 41.758 29.8281 41.7293 29.8193 41.7021C29.8105 41.6749 29.7965 41.6497 29.7781 41.6281C29.7597 41.6065 29.7372 41.5888 29.712 41.5761Z" fill="black"/>
<path d="M55.1661 43.0535C52.9595 38.686 49.4019 36.3777 44.88 36.3777C43.1666 36.3662 41.4722 36.744 39.9199 37.4838C38.3675 38.2235 36.9962 39.3067 35.9054 40.6545C35.8744 40.6919 35.8447 40.7294 35.8165 40.7668C35.7942 40.7878 35.7766 40.8134 35.7649 40.8419C35.7531 40.8704 35.7475 40.9011 35.7484 40.932C35.7494 40.9629 35.7568 40.9933 35.7702 41.021C35.7836 41.0487 35.8026 41.0732 35.8261 41.0928C35.8496 41.1123 35.8769 41.1265 35.9062 41.1344C35.9355 41.1423 35.9661 41.1437 35.996 41.1384C36.0259 41.1332 36.0543 41.1215 36.0793 41.1041C36.1044 41.0867 36.1255 41.064 36.1412 41.0375L36.2259 40.931C37.2772 39.6324 38.5987 38.5889 40.0947 37.8763C41.5906 37.1637 43.2234 36.7998 44.8744 36.8111C49.2268 36.8111 52.6546 39.0388 54.785 43.2523C55.8232 45.348 56.3922 47.6528 56.4508 50.0001C56.5525 52.8671 56.5101 57.2347 55.7308 61.7548C55.726 61.7827 55.7266 61.8113 55.7326 61.839C55.7387 61.8667 55.75 61.8928 55.766 61.916C55.7821 61.9392 55.8024 61.9589 55.8259 61.974C55.8494 61.989 55.8757 61.9992 55.9031 62.0039C55.9153 62.0054 55.9276 62.0054 55.9398 62.0039C55.9893 62.0034 56.0371 61.9853 56.075 61.9527C56.1129 61.9201 56.1384 61.8751 56.1473 61.8254C56.9337 57.2678 56.9774 52.8686 56.8744 49.9799C56.7897 47.4513 56.2137 45.1199 55.1661 43.0535Z" fill="black"/>
<path d="M34.0842 45.9613C34.0876 45.9331 34.0855 45.9045 34.078 45.8772C34.0705 45.8498 34.0578 45.8243 34.0406 45.8019C34.0235 45.7796 34.0021 45.7609 33.9779 45.747C33.9536 45.7331 33.9269 45.7242 33.8993 45.7208C33.8717 45.7174 33.8438 45.7196 33.8171 45.7272C33.7904 45.7349 33.7654 45.7478 33.7436 45.7654C33.7218 45.7829 33.7037 45.8047 33.6902 45.8294C33.6767 45.8541 33.6681 45.8813 33.6649 45.9094C33.5466 46.9236 33.5618 47.9493 33.7101 48.9594C34.0715 51.4376 34.416 56.1334 32.688 59.7406C32.6636 59.792 32.6602 59.8512 32.6784 59.9051C32.6967 59.9591 32.7352 60.0035 32.7854 60.0286C32.8142 60.0438 32.8462 60.0517 32.8786 60.0517C32.9182 60.0516 32.9571 60.0402 32.9908 60.0189C33.0244 59.9975 33.0516 59.967 33.0692 59.9307C34.8508 56.2184 34.4979 51.4232 34.1294 48.896C33.9861 47.9242 33.9709 46.9372 34.0842 45.9613V45.9613Z" fill="black"/>
<path d="M50.9732 55.1139C50.9173 55.1119 50.8628 55.1321 50.8212 55.1702C50.7796 55.2084 50.7541 55.2615 50.7501 55.3184C50.6056 58.4248 50.0665 61.4989 49.1464 64.4638C49.1377 64.4911 49.1345 64.52 49.1369 64.5486C49.1393 64.5772 49.1474 64.605 49.1605 64.6304C49.1737 64.6557 49.1917 64.6782 49.2135 64.6963C49.2354 64.7145 49.2605 64.7279 49.2875 64.736C49.3085 64.7428 49.3304 64.7462 49.3525 64.7461C49.3966 64.7463 49.4397 64.7326 49.4759 64.7068C49.512 64.681 49.5395 64.6444 49.5544 64.6021C50.4858 61.6012 51.032 58.4898 51.1793 55.3457C51.1812 55.3166 51.1774 55.2874 51.1679 55.2598C51.1585 55.2322 51.1438 55.2068 51.1245 55.1852C51.1053 55.1635 51.082 55.1461 51.056 55.1338C51.03 55.1216 51.0018 55.1148 50.9732 55.1139V55.1139Z" fill="black"/>
<path d="M50.5059 47.9124C50.5807 48.4884 50.6852 49.4446 50.7501 50.67C50.7516 50.6984 50.7586 50.7262 50.7706 50.7518C50.7826 50.7774 50.7994 50.8004 50.8202 50.8194C50.8409 50.8383 50.865 50.853 50.8913 50.8624C50.9176 50.8719 50.9454 50.876 50.9732 50.8745C51.001 50.873 51.0283 50.8659 51.0534 50.8536C51.0785 50.8414 51.101 50.8242 51.1196 50.8031C51.1382 50.7819 51.1526 50.7573 51.1619 50.7305C51.1711 50.7037 51.1752 50.6753 51.1737 50.647C51.1087 49.4071 51.0028 48.4452 50.9266 47.8562C50.8724 47.3986 50.7813 46.9464 50.6541 46.5041C49.5925 42.9041 46.7986 42.174 45.2273 42.0559C44.3454 41.9842 43.459 42.1181 42.6353 42.4476C37.7901 44.4305 39.2471 51.6636 39.2654 51.7442C40.7083 58.3423 37.1916 63.1519 37.1563 63.1994C37.1392 63.2219 37.1268 63.2475 37.1195 63.2749C37.1123 63.3023 37.1105 63.3309 37.1141 63.3591C37.1178 63.3872 37.1269 63.4143 37.1409 63.4388C37.155 63.4633 37.1736 63.4847 37.1958 63.5018C37.2178 63.5192 37.243 63.5319 37.2698 63.5393C37.2967 63.5467 37.3247 63.5485 37.3523 63.5448C37.3798 63.541 37.4064 63.5318 37.4304 63.5175C37.4545 63.5032 37.4755 63.4842 37.4923 63.4615C37.529 63.4126 41.1628 58.4518 39.6791 51.6535C39.665 51.5844 38.2786 44.6983 42.7934 42.8508C43.5562 42.546 44.3769 42.4224 45.1934 42.4894C46.656 42.5988 49.2579 43.2828 50.2461 46.6308C50.367 47.05 50.4539 47.4787 50.5059 47.9124V47.9124Z" fill="black"/>
<path d="M44.9591 58.8936C44.9317 58.8882 44.9036 58.8883 44.8763 58.894C44.849 58.8997 44.8231 58.9108 44.8 58.9267C44.7769 58.9426 44.7571 58.963 44.7418 58.9868C44.7264 59.0105 44.7159 59.0371 44.7106 59.065C44.3188 61.2542 43.5832 63.3645 42.5323 65.3146C42.5048 65.3647 42.4978 65.4238 42.5129 65.4791C42.5279 65.5344 42.5638 65.5814 42.6127 65.6098C42.6442 65.6279 42.6797 65.6373 42.7158 65.6372C42.7533 65.637 42.7901 65.6268 42.8226 65.6076C42.855 65.5884 42.882 65.5609 42.9007 65.5277C43.9743 63.5367 44.7261 61.3822 45.1271 59.1471C45.1324 59.1192 45.1323 59.0905 45.1267 59.0626C45.1212 59.0348 45.1103 59.0083 45.0947 58.9848C45.079 58.9612 45.059 58.9411 45.0358 58.9254C45.0125 58.9098 44.9864 58.899 44.9591 58.8936V58.8936Z" fill="black"/>
<path d="M44.753 47.1045C44.6983 47.1176 44.651 47.1522 44.6213 47.2008C44.5917 47.2494 44.5822 47.308 44.5948 47.3637C45.0255 49.547 45.2257 51.7711 45.192 53.9978C45.1916 54.0552 45.2136 54.1105 45.253 54.1515C45.2924 54.1925 45.3461 54.2159 45.4024 54.2167V54.2167C45.4582 54.2163 45.5116 54.1936 45.5512 54.1535C45.5908 54.1134 45.6134 54.0591 45.6141 54.0021C45.6465 51.7403 45.4406 49.4814 45 47.2644C44.9866 47.2106 44.9535 47.1641 44.9076 47.1344C44.8617 47.1047 44.8064 47.094 44.753 47.1045V47.1045Z" fill="black"/>
</svg>
