<?xml version="1.0" encoding="utf-8"?>
<!-- Generator: Adobe Illustrator 27.7.0, SVG Export Plug-In . SVG Version: 6.00 Build 0)  -->
<svg version="1.1" id="Layer_1" xmlns="http://www.w3.org/2000/svg" xmlns:xlink="http://www.w3.org/1999/xlink" x="0px" y="0px"
	 viewBox="0 0 120 35.6" style="enable-background:new 0 0 120 35.6;" xml:space="preserve">
<style type="text/css">
	.st0{fill:#A6A6A6;}
	.st1{fill:#FFFFFF;stroke:#FFFFFF;stroke-width:0.1778;stroke-miterlimit:8.8889;}
	.st2{fill:#FFFFFF;}
	.st3{fill:url(#SVGID_1_);}
	.st4{fill:url(#SVGID_00000158726521611066978640000004034309441372032168_);}
	.st5{fill:url(#SVGID_00000079473510836235609770000016003642249279938966_);}
	.st6{fill:url(#SVGID_00000100379774616663135860000011365877065177528487_);}
	.st7{opacity:0.2;enable-background:new    ;}
	.st8{opacity:0.12;enable-background:new    ;}
	.st9{opacity:0.25;fill:#FFFFFF;enable-background:new    ;}
</style>
<g id="SVGRepo_bgCarrier">
</g>
<g id="SVGRepo_tracerCarrier">
</g>
<g id="SVGRepo_iconCarrier">
	<path d="M115.6,35.6H4.4c-2.5,0-4.4-2-4.4-4.4V4.4C0,2,2,0,4.4,0h111.1c2.5,0,4.4,2,4.4,4.4v26.7C120,33.6,118,35.6,115.6,35.6z"/>
	<path class="st0" d="M115.6,0.7c2,0,3.7,1.7,3.7,3.7v26.7c0,2-1.7,3.7-3.7,3.7H4.4c-2,0-3.7-1.7-3.7-3.7V4.4c0-2,1.7-3.7,3.7-3.7
		H115.6 M115.6,0H4.4C2,0,0,2,0,4.4v26.7c0,2.5,2,4.4,4.4,4.4h111.1c2.5,0,4.4-2,4.4-4.4V4.4C120,2,118,0,115.6,0z"/>
	<path class="st1" d="M42.1,9.1c0,0.7-0.2,1.3-0.6,1.8c-0.5,0.5-1.2,0.8-2,0.8c-0.8,0-1.4-0.3-2-0.8c-0.5-0.5-0.8-1.2-0.8-2
		c0-0.8,0.3-1.4,0.8-2s1.2-0.8,2-0.8c0.4,0,0.7,0.1,1.1,0.3s0.6,0.4,0.8,0.6L41,7.5c-0.4-0.4-0.8-0.6-1.4-0.6
		c-0.5,0-1.1,0.2-1.4,0.6c-0.4,0.4-0.6,0.9-0.6,1.5s0.2,1.2,0.6,1.5c0.4,0.4,0.9,0.6,1.4,0.6c0.6,0,1.1-0.2,1.5-0.6
		c0.3-0.3,0.4-0.6,0.4-1.1h-2V8.7h2.6C42.1,8.7,42.1,9.1,42.1,9.1z M46.2,6.8h-2.4v1.7H46v0.6h-2.2v1.7h2.4v0.7h-3.1V6.2h3.1V6.8z
		 M49.2,11.6h-0.7V6.8h-1.5V6.2h3.7v0.6h-1.5V11.6z M53.2,11.6V6.2H54v5.3H53.2z M57,11.6h-0.7V6.8h-1.5V6.2h3.6v0.6h-1.5L57,11.6
		L57,11.6z M65.4,10.8c-0.5,0.5-1.2,0.8-2,0.8c-0.8,0-1.4-0.3-2-0.8c-0.5-0.5-0.8-1.2-0.8-2c0-0.8,0.3-1.4,0.8-2s1.2-0.8,2-0.8
		c0.8,0,1.4,0.3,2,0.8c0.5,0.5,0.8,1.2,0.8,2C66.2,9.7,66,10.3,65.4,10.8z M62,10.4c0.4,0.4,0.9,0.6,1.4,0.6c0.5,0,1.1-0.2,1.4-0.6
		c0.4-0.4,0.6-0.9,0.6-1.5s-0.2-1.2-0.6-1.5C64.5,7,64,6.8,63.5,6.8c-0.5,0-1.1,0.2-1.4,0.6c-0.4,0.4-0.6,0.9-0.6,1.5
		S61.6,10,62,10.4z M67.2,11.6V6.2H68l2.6,4.2V6.2h0.7v5.3h-0.7l-2.8-4.4v4.4C67.8,11.6,67.2,11.6,67.2,11.6z"/>
	<path class="st2" d="M60.5,19.4c-2.1,0-3.8,1.6-3.8,3.8c0,2.1,1.7,3.8,3.8,3.8s3.8-1.6,3.8-3.8C64.4,20.9,62.7,19.4,60.5,19.4z
		 M60.5,25.4c-1.2,0-2.1-1-2.1-2.3c0-1.3,1-2.3,2.1-2.3s2.1,0.9,2.1,2.3C62.7,24.4,61.7,25.4,60.5,25.4z M52.3,19.4
		c-2.1,0-3.8,1.6-3.8,3.8c0,2.1,1.7,3.8,3.8,3.8s3.8-1.6,3.8-3.8C56.1,20.9,54.4,19.4,52.3,19.4z M52.3,25.4c-1.2,0-2.1-1-2.1-2.3
		c0-1.3,1-2.3,2.1-2.3c1.2,0,2.1,0.9,2.1,2.3C54.4,24.4,53.4,25.4,52.3,25.4z M42.4,20.5v1.6h3.8c-0.1,0.9-0.4,1.6-0.9,2
		c-0.5,0.5-1.4,1.2-2.9,1.2c-2.4,0-4.2-1.9-4.2-4.3s1.9-4.3,4.2-4.3c1.2,0,2.2,0.5,2.9,1.2l1.2-1.2c-1-0.9-2.2-1.6-4-1.6
		c-3.2,0-6,2.7-6,5.9s2.8,5.9,6,5.9c1.8,0,3-0.5,4.1-1.7c1.1-1.1,1.4-2.6,1.4-3.7c0-0.4,0-0.7-0.1-1C47.9,20.5,42.4,20.5,42.4,20.5z
		 M82.8,21.8c-0.4-0.9-1.2-2.4-3.2-2.4S76,20.9,76,23.2c0,2.1,1.6,3.8,3.7,3.8c1.7,0,2.8-1.1,3.1-1.7l-1.2-0.9
		c-0.4,0.6-1,1.1-1.9,1.1c-0.9,0-1.4-0.4-1.9-1.2l5.1-2.1C82.9,22.2,82.8,21.8,82.8,21.8z M77.6,23c0-1.4,1.2-2.2,2-2.2
		c0.6,0,1.2,0.4,1.4,0.8C81,21.6,77.6,23,77.6,23z M73.4,26.7h1.7V15.6h-1.7V26.7z M70.8,20.2c-0.4-0.4-1.2-0.9-2-0.9
		c-1.9,0-3.6,1.7-3.6,3.8s1.7,3.7,3.6,3.7c0.9,0,1.6-0.4,2-0.9h0.1v0.5c0,1.4-0.8,2.2-2,2.2c-1,0-1.7-0.7-1.9-1.3L65.4,28
		c0.4,1,1.5,2.2,3.4,2.2c2,0,3.6-1.2,3.6-3.9v-6.8h-1.6C70.8,19.6,70.8,20.2,70.8,20.2z M68.8,25.4c-1.2,0-2.1-1-2.1-2.3
		c0-1.3,1-2.3,2.1-2.3s2,1,2,2.3C70.8,24.4,70,25.4,68.8,25.4z M90.5,15.6h-4v11.1h1.7v-4.2h2.3c1.9,0,3.6-1.3,3.6-3.5
		S92.4,15.6,90.5,15.6z M90.6,20.9h-2.4v-3.8h2.4c1.2,0,2,1.1,2,1.9C92.4,19.9,91.7,20.9,90.6,20.9z M100.8,19.3
		c-1.2,0-2.5,0.5-2.9,1.7l1.5,0.6c0.4-0.6,0.9-0.8,1.5-0.8c0.9,0,1.7,0.5,1.8,1.4v0.1c-0.3-0.2-1-0.4-1.7-0.4
		c-1.6,0-3.2,0.9-3.2,2.5c0,1.5,1.3,2.5,2.8,2.5c1.2,0,1.7-0.5,2.1-1.1h0.1v0.9h1.6v-4.3C104.2,20.4,102.7,19.3,100.8,19.3z
		 M100.6,25.4c-0.5,0-1.3-0.3-1.3-1c0-0.9,1-1.2,1.8-1.2c0.7,0,1.1,0.2,1.5,0.4C102.4,24.7,101.5,25.4,100.6,25.4z M110,19.6
		l-1.9,4.8H108l-2-4.8h-1.8l2.9,6.8l-1.7,3.7h1.7l4.5-10.5C111.7,19.6,110,19.6,110,19.6z M95,26.7h1.7V15.6H95V26.7z"/>
	<g>
		
			<linearGradient id="SVGID_1_" gradientUnits="userSpaceOnUse" x1="99.5453" y1="2095.2957" x2="82.7623" y2="2112.0776" gradientTransform="matrix(0.8889 0 0 0.8889 -69.1111 -1854.7469)">
			<stop  offset="0" style="stop-color:#00A0FF"/>
			<stop  offset="7.000001e-03" style="stop-color:#00A1FF"/>
			<stop  offset="0.26" style="stop-color:#00BEFF"/>
			<stop  offset="0.512" style="stop-color:#00D2FF"/>
			<stop  offset="0.76" style="stop-color:#00DFFF"/>
			<stop  offset="1" style="stop-color:#00E3FF"/>
		</linearGradient>
		<path class="st3" d="M9.2,6.7C9,6.9,8.9,7.4,8.9,7.9v19.6c0,0.5,0.2,1,0.4,1.2l0.1,0.1l11-11v-0.2L9.2,6.7z"/>
		
			<linearGradient id="SVGID_00000083768135927021219150000007480763245406836906_" gradientUnits="userSpaceOnUse" x1="111.584" y1="2106.6404" x2="87.387" y2="2106.6404" gradientTransform="matrix(0.8889 0 0 0.8889 -69.1111 -1854.7469)">
			<stop  offset="0" style="stop-color:#FFE000"/>
			<stop  offset="0.409" style="stop-color:#FFBD00"/>
			<stop  offset="0.775" style="stop-color:#FFA500"/>
			<stop  offset="1" style="stop-color:#FF9C00"/>
		</linearGradient>
		<path style="fill:url(#SVGID_00000083768135927021219150000007480763245406836906_);" d="M24,21.6L20.4,18v-0.3L24,14l0.1,0.1
			l4.4,2.5c1.2,0.7,1.2,1.9,0,2.6L24,21.6z"/>
		
			<linearGradient id="SVGID_00000137118408037548715920000005692731473640743304_" gradientUnits="userSpaceOnUse" x1="102.5655" y1="2108.8748" x2="79.8075" y2="2131.6328" gradientTransform="matrix(0.8889 0 0 0.8889 -69.1111 -1854.7469)">
			<stop  offset="0" style="stop-color:#FF3A44"/>
			<stop  offset="1" style="stop-color:#C31162"/>
		</linearGradient>
		<path style="fill:url(#SVGID_00000137118408037548715920000005692731473640743304_);" d="M24.1,21.5l-3.7-3.7L9.2,28.9
			c0.4,0.4,1.1,0.4,1.9,0.1L24.1,21.5"/>
		
			<linearGradient id="SVGID_00000031201177638462130000000015026586025371274625_" gradientUnits="userSpaceOnUse" x1="85.0115" y1="2086.8018" x2="95.1745" y2="2096.9648" gradientTransform="matrix(0.8889 0 0 0.8889 -69.1111 -1854.7469)">
			<stop  offset="0" style="stop-color:#32A071"/>
			<stop  offset="6.900000e-02" style="stop-color:#2DA771"/>
			<stop  offset="0.476" style="stop-color:#15CF74"/>
			<stop  offset="0.801" style="stop-color:#06E775"/>
			<stop  offset="1" style="stop-color:#00F076"/>
		</linearGradient>
		<path style="fill:url(#SVGID_00000031201177638462130000000015026586025371274625_);" d="M24.1,14l-13-7.4
			c-0.8-0.4-1.4-0.4-1.9,0.1l11.1,11C20.4,17.8,24.1,14,24.1,14z"/>
		<path class="st7" d="M24,21.4l-12.9,7.3c-0.7,0.4-1.3,0.4-1.8,0l-0.1,0.1l0.1,0.1c0.4,0.4,1.1,0.4,1.8,0L24,21.4z"/>
		<path class="st8" d="M9.2,28.7C9,28.4,8.9,28,8.9,27.5v0.1C8.9,28.1,9.1,28.5,9.2,28.7L9.2,28.7C9.3,28.7,9.2,28.7,9.2,28.7z
			 M28.4,18.9L24,21.4l0.1,0.1L28.4,18.9c0.6-0.3,0.9-0.7,0.9-1.2C29.3,18.2,29,18.6,28.4,18.9z"/>
		<path class="st9" d="M11.1,6.8l17.3,9.9c0.5,0.4,0.9,0.7,0.9,1.2c0-0.4-0.3-0.9-0.9-1.2L11.1,6.8C9.9,6,8.9,6.5,8.9,7.9V8
			C8.9,6.7,9.9,6,11.1,6.8z"/>
	</g>
</g>
</svg>
