<svg width="71" height="73" viewBox="0 0 71 73" fill="none" xmlns="http://www.w3.org/2000/svg">
<path d="M24.7765 53.4216C32.1446 53.4216 38.1176 47.3291 38.1176 39.8136C38.1176 32.2981 32.1446 26.2056 24.7765 26.2056C17.4083 26.2056 11.4353 32.2981 11.4353 39.8136C11.4353 47.3291 17.4083 53.4216 24.7765 53.4216Z" fill="#FFBB1C"/>
<path d="M33.8471 44.2576H41.7332C42.1636 44.2572 42.5764 44.0826 42.8808 43.7722C43.1852 43.4617 43.3563 43.0407 43.3567 42.6016V35.4016C43.3563 34.9625 43.1852 34.5415 42.8808 34.2311C42.5764 33.9206 42.1636 33.746 41.7332 33.7456H29.0273C28.5968 33.746 28.1841 33.9206 27.8797 34.2311C27.5753 34.5415 27.4041 34.9625 27.4038 35.4016V42.6016C27.4041 43.0407 27.5753 43.4617 27.8797 43.7722C28.1841 44.0826 28.5968 44.2572 29.0273 44.2576H30.2273V46.9216C30.2272 46.9641 30.2395 47.0057 30.2626 47.0411C30.2857 47.0765 30.3187 47.1041 30.3572 47.1203C30.383 47.1317 30.4109 47.1376 30.4391 47.1376C30.4951 47.1371 30.5488 47.1144 30.5887 47.0742L32.9986 44.6162C33.1096 44.502 33.2418 44.4115 33.3875 44.3499C33.5332 44.2884 33.6894 44.257 33.8471 44.2576ZM30.6508 46.3989V44.0416C30.6508 43.9843 30.6285 43.9294 30.5888 43.8889C30.5491 43.8484 30.4952 43.8256 30.4391 43.8256H29.0273C28.7091 43.8252 28.4041 43.6961 28.1792 43.4667C27.9542 43.2372 27.8277 42.9261 27.8273 42.6016V35.4016C27.8277 35.0771 27.9542 34.766 28.1792 34.5365C28.4041 34.3071 28.7091 34.178 29.0273 34.1776H41.7332C42.0513 34.178 42.3563 34.3071 42.5813 34.5365C42.8063 34.766 42.9328 35.0771 42.9332 35.4016V42.6016C42.9324 42.926 42.8058 43.2369 42.5809 43.4663C42.356 43.6956 42.0512 43.8248 41.7332 43.8256H33.8471C33.6339 43.8248 33.4227 43.8672 33.2257 43.9503C33.0287 44.0333 32.8497 44.1554 32.6993 44.3094L30.6508 46.3989Z" fill="black"/>
<path d="M29.7332 37.7777H41.0273C41.0835 37.7777 41.1373 37.7549 41.177 37.7144C41.2167 37.6739 41.2391 37.619 41.2391 37.5617C41.2391 37.5044 41.2167 37.4495 41.177 37.409C41.1373 37.3685 41.0835 37.3457 41.0273 37.3457H29.7332C29.677 37.3457 29.6231 37.3685 29.5834 37.409C29.5437 37.4495 29.5214 37.5044 29.5214 37.5617C29.5214 37.619 29.5437 37.6739 29.5834 37.7144C29.6231 37.7549 29.677 37.7777 29.7332 37.7777Z" fill="black"/>
<path d="M35.592 40.4416C35.592 40.3843 35.5697 40.3294 35.53 40.2889C35.4903 40.2483 35.4364 40.2256 35.3802 40.2256H29.7332C29.677 40.2256 29.6231 40.2483 29.5834 40.2889C29.5437 40.3294 29.5214 40.3843 29.5214 40.4416C29.5214 40.4989 29.5437 40.5538 29.5834 40.5943C29.6231 40.6348 29.677 40.6576 29.7332 40.6576H35.3802C35.4364 40.6576 35.4903 40.6348 35.53 40.5943C35.5697 40.5538 35.592 40.4989 35.592 40.4416Z" fill="black"/>
<path d="M52.9242 31.7469V30.497C52.8791 20.7093 45.0353 12.7461 35.4353 12.7461C25.8353 12.7461 18.0028 20.7122 17.9591 30.5042V31.7253C17.8179 31.757 17.6894 31.793 17.5553 31.8333C15.9342 32.3198 14.5385 33.3844 13.6228 34.833C12.7071 36.2816 12.3324 38.0177 12.5671 39.7246C12.8017 41.4315 13.6301 42.9956 14.9011 44.1314C16.1721 45.2673 17.801 45.8993 19.4908 45.9122H19.9511C19.967 45.9144 19.9831 45.9144 19.9991 45.9122H22.3059C22.362 45.9122 22.4159 45.8894 22.4556 45.8489C22.4953 45.8084 22.5176 45.7535 22.5176 45.6962V31.7627C22.5176 31.7054 22.4953 31.6505 22.4556 31.61C22.4159 31.5695 22.362 31.5467 22.3059 31.5467H21.6226C21.607 31.5421 21.5908 31.5397 21.5746 31.5395H20.8941V30.5114C20.9198 26.592 22.4622 22.8416 25.1855 20.0765C27.9088 17.3114 31.5927 15.7553 35.4353 15.7471C43.4174 15.7471 49.9398 22.3711 49.9765 30.5042V31.5338H49.2127C49.1965 31.534 49.1803 31.5365 49.1647 31.541H48.4814C48.4252 31.541 48.3714 31.5637 48.3317 31.6042C48.292 31.6447 48.2696 31.6997 48.2696 31.757V45.7034C48.2696 45.7607 48.292 45.8156 48.3317 45.8561C48.3714 45.8966 48.4252 45.9194 48.4814 45.9194H50.5496V50.9594C50.5474 52.8109 49.8253 54.586 48.5417 55.8953C47.2581 57.2045 45.5178 57.9411 43.7026 57.9434H37.5614V56.7194C37.5614 56.6621 37.5391 56.6071 37.4994 56.5666C37.4597 56.5261 37.4058 56.5034 37.3496 56.5034H33.1144C32.6838 56.5034 32.2708 56.6778 31.9663 56.9884C31.6619 57.299 31.4908 57.7202 31.4908 58.1594C31.4908 58.5986 31.6619 59.0198 31.9663 59.3303C32.2708 59.6409 32.6838 59.8154 33.1144 59.8154H37.3496C37.4058 59.8154 37.4597 59.7926 37.4994 59.7521C37.5391 59.7116 37.5614 59.6567 37.5614 59.5994V58.3754H43.7026C45.6301 58.3727 47.4778 57.5905 48.8408 56.2003C50.2037 54.8101 50.9706 52.9254 50.9732 50.9594V45.9194H51.2965C53.0143 45.9062 54.6682 45.2533 55.9471 44.0834C57.2259 42.9135 58.0417 41.3073 58.2408 39.5669C58.4399 37.8265 58.0087 36.0719 57.0283 34.633C56.0479 33.1942 54.5858 32.1704 52.9172 31.7541L52.9242 31.7469ZM37.1449 59.3776H33.1214C32.8032 59.3776 32.4979 59.2487 32.2729 59.0191C32.0478 58.7896 31.9214 58.4782 31.9214 58.1536C31.9214 57.829 32.0478 57.5177 32.2729 57.2881C32.4979 57.0586 32.8032 56.9296 33.1214 56.9296H37.1449V59.3776ZM19.5106 45.4802C17.7545 45.4802 16.0704 44.7686 14.8287 43.5021C13.587 42.2355 12.8894 40.5177 12.8894 38.7266C12.8894 36.9354 13.587 35.2176 14.8287 33.9511C16.0704 32.6845 17.7545 31.973 19.5106 31.973H19.7929V45.4816H19.5106V45.4802ZM22.0927 45.4802H20.2094V31.9787H22.0927V45.4802ZM50.4 30.5027C50.3619 22.1277 43.6489 15.3151 35.4353 15.3151C27.2216 15.3151 20.5144 22.1306 20.4706 30.5099V31.5338H19.4824C19.1109 31.5366 18.7403 31.5699 18.3741 31.6331V30.4984C18.4165 20.944 26.0696 13.1709 35.4325 13.1709C44.7953 13.1709 52.4485 20.9469 52.4922 30.4912V31.6432C52.0971 31.5704 51.6966 31.5318 51.2951 31.528H50.3986L50.4 30.5027ZM48.7059 31.9787H50.5835V45.4874H48.7059V31.9787ZM51.288 45.4802H51.0071V31.9658H51.2824C53.036 31.9723 54.7154 32.6889 55.9512 33.958C57.187 35.2272 57.8781 36.945 57.8725 38.7338C57.8669 40.5171 57.1716 42.2261 55.9376 43.4893C54.7036 44.7526 53.0306 45.468 51.2824 45.4802H51.288Z" fill="black"/>
<path d="M61.2 35.092C61.0145 34.9025 60.7628 34.796 60.5003 34.7959C60.2378 34.7958 59.9859 34.902 59.8002 35.0912C59.6145 35.2805 59.5101 35.5372 59.51 35.805C59.5098 36.0727 59.614 36.3296 59.7995 36.519C60.4563 37.1964 60.8247 38.1107 60.8247 39.0635C60.8247 40.0162 60.4563 40.9305 59.7995 41.608C59.7067 41.6992 59.6329 41.8085 59.5824 41.9295C59.532 42.0505 59.506 42.1806 59.506 42.3121C59.506 42.4436 59.532 42.5737 59.5824 42.6947C59.6329 42.8157 59.7067 42.9251 59.7995 43.0163C59.8913 43.1103 60.0005 43.1849 60.1206 43.2359C60.2408 43.2868 60.3696 43.313 60.4998 43.313C60.6299 43.313 60.7587 43.2868 60.8789 43.2359C60.9991 43.1849 61.1082 43.1103 61.2 43.0163C61.71 42.4963 62.1146 41.879 62.3906 41.1995C62.6667 40.5201 62.8088 39.7918 62.8088 39.0563C62.8088 38.3208 62.6667 37.5925 62.3906 36.913C62.1146 36.2335 61.71 35.6162 61.2 35.0963V35.092ZM60.9007 42.711C60.8482 42.7648 60.7859 42.8074 60.7172 42.8365C60.6485 42.8657 60.5748 42.8806 60.5005 42.8806C60.4261 42.8806 60.3524 42.8657 60.2838 42.8365C60.2151 42.8074 60.1527 42.7648 60.1002 42.711C60.0464 42.66 60.0035 42.5983 59.9742 42.5297C59.9448 42.4611 59.9297 42.387 59.9297 42.3121C59.9297 42.2372 59.9448 42.1632 59.9742 42.0945C60.0035 42.0259 60.0464 41.9642 60.1002 41.9132C60.8356 41.1544 61.2481 40.1305 61.2481 39.0635C61.2481 37.9965 60.8356 36.9725 60.1002 36.2137C60.0192 36.1335 59.9636 36.0303 59.9406 35.9175C59.9177 35.8047 59.9284 35.6875 59.9714 35.581C60.0144 35.4745 60.0878 35.3836 60.1819 35.32C60.2761 35.2565 60.3868 35.2232 60.4998 35.2244C60.5745 35.2248 60.6484 35.2402 60.7172 35.2699C60.786 35.2995 60.8484 35.3428 60.9007 35.3972C61.3719 35.8772 61.7457 36.4473 62.0008 37.0748C62.2559 37.7022 62.3871 38.3748 62.3871 39.0541C62.3871 39.7334 62.2559 40.406 62.0008 41.0335C61.7457 41.661 61.3719 42.231 60.9007 42.711Z" fill="black"/>
<path d="M63.5929 32.651C63.5011 32.5573 63.392 32.483 63.272 32.4323C63.152 32.3816 63.0233 32.3555 62.8934 32.3555C62.7635 32.3555 62.6349 32.3816 62.5148 32.4323C62.3948 32.483 62.2857 32.5573 62.1939 32.651C62.102 32.7447 62.0291 32.856 61.9794 32.9784C61.9297 33.1008 61.9041 33.232 61.9041 33.3645C61.9041 33.4971 61.9297 33.6283 61.9794 33.7507C62.0291 33.8731 62.102 33.9844 62.1939 34.0781C62.8359 34.7319 63.345 35.5085 63.6922 36.3634C64.0393 37.2183 64.2176 38.1347 64.2168 39.0601C64.216 39.9854 64.0362 40.9015 63.6876 41.7558C63.339 42.6101 62.8285 43.3859 62.1854 44.0385C62.0069 44.2345 61.9063 44.4911 61.9031 44.7585C61.904 44.8897 61.9304 45.0193 61.9808 45.1399C62.0312 45.2606 62.1046 45.3698 62.1967 45.4613C62.2877 45.5565 62.3965 45.6322 62.5166 45.6838C62.6368 45.7355 62.7659 45.7621 62.8962 45.7621C63.0266 45.7621 63.1557 45.7355 63.2758 45.6838C63.396 45.6322 63.5048 45.5565 63.5958 45.4613C65.2575 43.7603 66.1904 41.4568 66.1898 39.0555C66.1893 36.6543 65.2554 34.3512 63.5929 32.651ZM63.2936 45.1517C63.2412 45.2054 63.1788 45.2481 63.1101 45.2772C63.0414 45.3063 62.9678 45.3213 62.8934 45.3213C62.819 45.3213 62.7454 45.3063 62.6767 45.2772C62.608 45.2481 62.5456 45.2054 62.4932 45.1517C62.4403 45.1003 62.3981 45.0387 62.369 44.9704C62.3399 44.9022 62.3245 44.8286 62.3238 44.7542C62.3279 44.5985 62.3882 44.4498 62.4932 44.3366C63.1739 43.6434 63.714 42.8201 64.0825 41.9137C64.451 41.0074 64.6407 40.0359 64.6407 39.0547C64.6407 38.0735 64.451 37.102 64.0825 36.1956C63.714 35.2893 63.1739 34.466 62.4932 33.7728C62.4406 33.7192 62.3989 33.6555 62.3705 33.5855C62.342 33.5154 62.3274 33.4404 62.3274 33.3645C62.3274 33.2887 62.342 33.2136 62.3705 33.1436C62.3989 33.0736 62.4406 33.0099 62.4932 32.9563C62.5457 32.9027 62.6081 32.8602 62.6768 32.8311C62.7455 32.8021 62.8191 32.7872 62.8934 32.7872C62.9677 32.7872 63.0413 32.8021 63.11 32.8311C63.1787 32.8602 63.2411 32.9027 63.2936 32.9563C64.8752 34.5757 65.7632 36.7682 65.7632 39.054C65.7632 41.3397 64.8752 43.5323 63.2936 45.1517Z" fill="black"/>
<path d="M10.7082 36.5191C10.862 36.3245 10.9395 36.0785 10.9255 35.829C10.9116 35.5794 10.8072 35.3441 10.6327 35.1686C10.4582 34.9931 10.226 34.89 9.98115 34.8793C9.73632 34.8686 9.49633 34.9511 9.30776 35.1107C8.79791 35.6308 8.39347 36.2481 8.11754 36.9276C7.84161 37.6071 7.69959 38.3353 7.69959 39.0707C7.69959 39.8062 7.84161 40.5344 8.11754 41.2139C8.39347 41.8934 8.79791 42.5107 9.30776 43.0308C9.49562 43.2011 9.74009 43.2921 9.99138 43.2851C10.2427 43.2781 10.4819 43.1737 10.6604 42.9931C10.8389 42.8125 10.9432 42.5694 10.9521 42.3131C10.9609 42.0569 10.8738 41.8068 10.7082 41.6138C10.0497 40.9361 9.6803 40.0206 9.6803 39.0664C9.6803 38.1123 10.0497 37.1968 10.7082 36.5191ZM10.4089 42.7312C10.3018 42.8382 10.1579 42.8981 10.008 42.8981C9.8581 42.8981 9.71418 42.8382 9.60706 42.7312C9.13589 42.2514 8.76209 41.6814 8.50706 41.0541C8.25202 40.4267 8.12075 39.7542 8.12075 39.0751C8.12075 38.3959 8.25202 37.7234 8.50706 37.0961C8.76209 36.4687 9.13589 35.8988 9.60706 35.4189C9.65955 35.3649 9.72201 35.3221 9.79083 35.2928C9.85964 35.2636 9.93345 35.2485 10.008 35.2485C10.0825 35.2485 10.1564 35.2636 10.2252 35.2928C10.294 35.3221 10.3564 35.3649 10.4089 35.4189C10.4625 35.47 10.5053 35.5317 10.5345 35.6003C10.5637 35.669 10.5788 35.743 10.5788 35.8178C10.5788 35.8926 10.5637 35.9666 10.5345 36.0352C10.5053 36.1039 10.4625 36.1656 10.4089 36.2167C9.67328 36.9751 9.26065 37.9988 9.26065 39.0657C9.26065 40.1326 9.67328 41.1564 10.4089 41.9148C10.4619 41.9683 10.5039 42.032 10.5325 42.1022C10.5612 42.1724 10.576 42.2477 10.576 42.3237C10.576 42.3997 10.5612 42.475 10.5325 42.5452C10.5039 42.6154 10.4619 42.6791 10.4089 42.7327V42.7312Z" fill="black"/>
<path d="M6.29224 39.0535C6.29185 38.1294 6.47177 37.2145 6.82153 36.362C7.17128 35.5096 7.68386 34.7367 8.32941 34.0884C8.50814 33.8926 8.60882 33.6358 8.61176 33.3684C8.60811 33.1022 8.50283 32.8479 8.31828 32.6597C8.13374 32.4715 7.88449 32.3641 7.62353 32.3604C7.49226 32.36 7.36224 32.3862 7.24104 32.4377C7.11984 32.4891 7.00991 32.5646 6.91765 32.6599C5.25638 34.3603 4.32357 36.663 4.32357 39.0636C4.32357 41.4641 5.25638 43.7668 6.91765 45.4672C7.10317 45.6565 7.3548 45.7628 7.61718 45.7628C7.87955 45.7628 8.13118 45.6565 8.31671 45.4672C8.50223 45.278 8.60646 45.0213 8.60646 44.7537C8.60646 44.4861 8.50223 44.2294 8.31671 44.0402C7.6725 43.387 7.16183 42.6099 6.81431 41.7539C6.46679 40.8978 6.28934 39.98 6.29224 39.0535ZM8.01459 45.172C7.96212 45.2258 7.89975 45.2685 7.83106 45.2976C7.76238 45.3267 7.68873 45.3417 7.61435 45.3417C7.53997 45.3417 7.46633 45.3267 7.39764 45.2976C7.32896 45.2685 7.26659 45.2258 7.21412 45.172C5.63216 43.5526 4.74391 41.3597 4.74391 39.0736C4.74391 36.7875 5.63216 34.5946 7.21412 32.9752C7.26659 32.9215 7.32896 32.8788 7.39764 32.8497C7.46633 32.8206 7.53997 32.8056 7.61435 32.8056C7.68873 32.8056 7.76238 32.8206 7.83106 32.8497C7.89975 32.8788 7.96212 32.9215 8.01459 32.9752C8.06733 33.027 8.10947 33.0888 8.13856 33.1573C8.16764 33.2258 8.18309 33.2995 8.184 33.3741C8.17951 33.5295 8.1198 33.6779 8.016 33.7917C7.33541 34.485 6.79548 35.3084 6.4271 36.2147C6.05872 37.121 5.8691 38.0925 5.8691 39.0736C5.8691 40.0548 6.05872 41.0263 6.4271 41.9326C6.79548 42.8389 7.33541 43.6622 8.016 44.3556C8.06958 44.4086 8.11217 44.472 8.14126 44.5422C8.17035 44.6123 8.18534 44.6876 8.18534 44.7638C8.18534 44.8399 8.17035 44.9153 8.14126 44.9854C8.11217 45.0556 8.06958 45.119 8.016 45.172H8.01459Z" fill="black"/>
</svg>
