<svg width="71" height="73" viewBox="0 0 71 73" fill="none" xmlns="http://www.w3.org/2000/svg">
<path d="M32.7529 50.8297C39.3024 50.8297 44.6117 45.4141 44.6117 38.7337C44.6117 32.0533 39.3024 26.6377 32.7529 26.6377C26.2035 26.6377 20.8941 32.0533 20.8941 38.7337C20.8941 45.4141 26.2035 50.8297 32.7529 50.8297Z" fill="#12B2A7"/>
<path d="M35.2334 63.051C35.2129 63.0511 35.1924 63.0482 35.1727 63.0424C29.136 61.2222 24.2118 57.7245 20.5369 52.647C17.6033 48.592 15.4546 43.5261 14.16 37.5918C11.9548 27.5017 12.9882 18.2627 12.9882 18.1705C12.991 18.1422 12.9993 18.1147 13.0127 18.0898C13.0261 18.0648 13.0442 18.0428 13.0661 18.0251C13.0879 18.0073 13.113 17.9943 13.1399 17.9866C13.1668 17.9789 13.1949 17.9769 13.2226 17.9805C18.6769 18.6528 24.2073 17.7773 29.2052 15.4504C32.9449 13.6979 35.0626 11.7208 35.0838 11.7064C35.1224 11.6707 35.1728 11.6509 35.2249 11.6509C35.2771 11.6509 35.3274 11.6707 35.3661 11.7064C35.3873 11.7265 37.5063 13.7037 41.2447 15.4504C46.2426 17.7773 51.773 18.6528 57.2273 17.9805C57.255 17.9769 57.2831 17.9789 57.31 17.9866C57.3368 17.9943 57.3619 18.0073 57.3838 18.0251C57.4056 18.0428 57.4238 18.0648 57.4371 18.0898C57.4505 18.1147 57.4588 18.1422 57.4616 18.1705C57.4729 18.2627 58.5007 27.5032 56.2955 37.5918C54.9981 43.5261 52.8522 48.592 49.9186 52.647C46.248 57.7245 41.3209 61.2222 35.2828 63.0424C35.2667 63.0472 35.2501 63.0501 35.2334 63.051ZM13.392 18.4297C13.2508 19.8697 12.5689 28.3355 14.5765 37.5054C15.8612 43.3777 17.9831 48.3861 20.8814 52.3921C24.4871 57.3717 29.3153 60.8089 35.2334 62.6061C41.1501 60.8089 45.9783 57.3717 49.584 52.3921C52.4823 48.3861 54.6042 43.3777 55.8889 37.5054C57.8965 28.3398 57.2118 19.8697 57.0734 18.4297C51.6047 19.0675 46.069 18.1713 41.0626 15.8377C37.8155 14.3157 35.7741 12.6237 35.2334 12.1499C34.6913 12.6237 32.6456 14.3099 29.4042 15.8377C24.3973 18.1712 18.8612 19.0673 13.392 18.4297Z" fill="black"/>
<path d="M35.2334 49.852C33.071 49.8523 30.9571 49.1985 29.159 47.9733C27.3609 46.7481 25.9594 45.0065 25.1318 42.9688C24.3041 40.9311 24.0875 38.6888 24.5093 36.5255C24.9311 34.3622 25.9724 32.3751 27.5014 30.8155C29.0305 29.2558 30.9786 28.1938 33.0995 27.7635C35.2203 27.3333 37.4187 27.5542 39.4164 28.3984C41.4142 29.2426 43.1216 30.6722 44.3228 32.5062C45.524 34.3403 46.165 36.4965 46.1647 38.7021C46.1613 41.6582 45.0086 44.4922 42.9593 46.5825C40.91 48.6728 38.1315 49.8486 35.2334 49.852ZM35.2334 27.9828C33.1548 27.9825 31.1228 28.6109 29.3944 29.7886C27.666 30.9663 26.3188 32.6403 25.5232 34.599C24.7276 36.5577 24.5192 38.713 24.9246 40.7925C25.3299 42.8719 26.3307 44.7821 27.8004 46.2813C29.2701 47.7806 31.1426 48.8017 33.1812 49.2154C35.2199 49.6291 37.333 49.4169 39.2534 48.6057C41.1737 47.7944 42.8151 46.4204 43.97 44.6576C45.1248 42.8948 45.7412 40.8223 45.7412 38.7021C45.7378 35.8605 44.6297 33.1362 42.6599 31.1267C40.6901 29.1172 38.0193 27.9866 35.2334 27.9828Z" fill="black"/>
<path d="M33.8273 43.2091C33.7712 43.2087 33.7175 43.186 33.6776 43.1457L30.2894 39.6897C30.252 39.6487 30.2316 39.5946 30.2326 39.5386C30.2336 39.4827 30.2558 39.4293 30.2946 39.3897C30.3334 39.3501 30.3857 39.3275 30.4406 39.3265C30.4955 39.3255 30.5486 39.3463 30.5887 39.3844L33.8231 42.6849L40.68 35.2775C40.6989 35.2562 40.7218 35.239 40.7474 35.2268C40.7729 35.2147 40.8006 35.2078 40.8287 35.2067C40.8569 35.2056 40.885 35.2102 40.9114 35.2203C40.9378 35.2304 40.9619 35.2458 40.9824 35.2655C41.0029 35.2853 41.0193 35.309 41.0307 35.3353C41.0421 35.3616 41.0482 35.39 41.0487 35.4187C41.0492 35.4475 41.0441 35.476 41.0336 35.5027C41.0231 35.5294 41.0076 35.5537 40.9878 35.5742L33.9826 43.1457C33.9428 43.1875 33.8886 43.2118 33.8315 43.2134L33.8273 43.2091Z" fill="black"/>
</svg>
